<svg height="512" viewBox="0 0 64 64" width="512" xmlns="http://www.w3.org/2000/svg"><g id="Filled_outline" data-name="Filled outline"><path d="m25 12h14v14h-14z" fill="#ffd782"/><path d="m25 12v-2a3 3 0 0 1 3-3h5a2 2 0 0 0 2-2 2 2 0 0 1 2-2h2v9z" fill="#394d5c"/><path d="m3 46h58v4h-58z" fill="#d3843d"/><path d="m43 30h-22v-6h-4v8a2 2 0 0 0 2 2h6v12h14v-12h6a2 2 0 0 0 2-2v-8h-4z" fill="#96c3f0"/><path d="m19 20a2 2 0 0 1 2 2v2a0 0 0 0 1 0 0h-4a0 0 0 0 1 0 0v-2a2 2 0 0 1 2-2z" fill="#ffd782"/><path d="m45 20a2 2 0 0 1 2 2v2a0 0 0 0 1 0 0h-4a0 0 0 0 1 0 0v-2a2 2 0 0 1 2-2z" fill="#ffd782"/><path d="m34 40-2 2-2-2v-10h4z" fill="#195c85"/><path d="m43 42h18v4h-18z" fill="#f9bb4b"/><path d="m49 38h12v4h-12z" fill="#ffd782"/><path d="m51 34h10v4h-10z" fill="#f9bb4b"/><path d="m51 30h10v4h-10z" fill="#ffd782"/><path d="m51 26h10v4h-10z" fill="#f9bb4b"/><path d="m54 22h7v4h-7z" fill="#ffd782"/><path d="m51 18h10v4h-10z" fill="#f9bb4b"/><path d="m52 14h9v4h-9z" fill="#ffd782"/><g fill="#394d5c"><path d="m11 20a0 0 0 0 1 0 0v18a0 0 0 0 1 0 0h-4a0 0 0 0 1 0 0v-14a4 4 0 0 1 4-4z"/><path d="m3 42h5v4h-5z"/><path d="m12 42h9v4h-9z"/></g><path d="m3 50h58v11h-58z" fill="#ad6327"/><path d="m39 27a1 1 0 0 0 1-1v-23a1 1 0 0 0 -1-1h-2a3 3 0 0 0 -3 3 1 1 0 0 1 -1 1h-5a4 4 0 0 0 -4 4v16a1 1 0 0 0 1 1zm-13-17a2 2 0 0 1 2-2h5a3 3 0 0 0 3-3 1 1 0 0 1 1-1h1v7h-12zm0 3h12v12h-12z"/><path d="m29 15h2v2h-2z"/><path d="m33 15h2v2h-2z"/><path d="m32 19a4 4 0 0 0 -4 4h2a2 2 0 0 1 4 0h2a4 4 0 0 0 -4-4z"/><path d="m61 13h-9a1 1 0 0 0 -1 1v3a1 1 0 0 0 -1 1v4a1 1 0 0 0 1 1h2v2h-2a1 1 0 0 0 -1 1v11h-1a1 1 0 0 0 -1 1v3h-5a1 1 0 0 0 -1 1v3h-2v-10h5a3 3 0 0 0 3-3v-10a3 3 0 0 0 -6 0v7h-20v-7a3 3 0 0 0 -6 0v10a3 3 0 0 0 3 3h5v10h-2v-3a1 1 0 0 0 -1-1h-9a1 1 0 0 0 -1 1v3h-2v-3a1 1 0 0 0 -1-1h-4v-1a3 3 0 0 1 2-2.816v.816a1 1 0 0 0 1 1h4a1 1 0 0 0 1-1v-18a1 1 0 0 0 -1-1 5.006 5.006 0 0 0 -5 5v11.1a5.009 5.009 0 0 0 -4 4.9v21a1 1 0 0 0 1 1h58a1 1 0 0 0 1-1v-47a1 1 0 0 0 -1-1zm-53 11a3.006 3.006 0 0 1 2-2.829v15.829h-2zm36-2a1 1 0 0 1 2 0v1h-2zm-13 9h2v8.586l-1 1-1-1zm-13-9a1 1 0 0 1 2 0v1h-2zm1 11a1 1 0 0 1 -1-1v-7h2v5a1 1 0 0 0 1 1h8v9a1 1 0 0 0 .293.707l2 2a1 1 0 0 0 1.414 0l2-2a1 1 0 0 0 .293-.707v-9h8a1 1 0 0 0 1-1v-5h2v7a1 1 0 0 1 -1 1h-6a1 1 0 0 0 -1 1v11h-12v-11a1 1 0 0 0 -1-1zm-6 10h7v2h-7zm-9 0h3v2h-3zm56 17h-56v-9h56zm0-11h-56v-2h56zm0-4h-16v-2h16zm0-4h-10v-2h10zm0-4h-8v-2h8zm0-4h-8v-2h8zm0-4h-8v-2h8zm0-4h-5v-2h5zm0-4h-8v-2h8zm0-4h-7v-2h7z"/></g></svg>